<svg id="Layer_1" data-name="Layer 1" xmlns="http://www.w3.org/2000/svg" viewBox="0 0 768 224"><defs><style>.cls-1{fill:#fefefe;fill-opacity:0.1;}.cls-2,.cls-4{fill:none;}.cls-2{stroke:#141414;stroke-linecap:round;stroke-linejoin:round;stroke-width:2px;}.cls-3{fill:#005ae2;}.cls-4{stroke:#005ae2;stroke-width:0.5px;}</style></defs><title>Frame 29546</title><rect class="cls-1" width="768" height="224" rx="24"/><path class="cls-2" d="M110,63.33h10a16.62,16.62,0,0,1,6.38,1.27,16.62,16.62,0,0,1,9,9,16.66,16.66,0,0,1,0,12.76,16.62,16.62,0,0,1-9,9A16.62,16.62,0,0,1,120,96.67H110m-20,0H80a16.62,16.62,0,0,1-6.38-1.27,16.88,16.88,0,0,1-5.41-3.61A16.67,16.67,0,0,1,80,63.33H90"/><path class="cls-2" d="M86.67,80h26.66"/><path class="cls-2" d="M182,63.33h10a16.62,16.62,0,0,1,6.38,1.27,16.62,16.62,0,0,1,9,9,16.66,16.66,0,0,1,0,12.76,16.62,16.62,0,0,1-9,9A16.62,16.62,0,0,1,192,96.67H182m-20,0H152a16.62,16.62,0,0,1-6.38-1.27,16.88,16.88,0,0,1-5.41-3.61A16.67,16.67,0,0,1,152,63.33h10"/><path class="cls-2" d="M158.67,80h26.66"/><path class="cls-2" d="M254,63.33h10a16.62,16.62,0,0,1,6.38,1.27,16.62,16.62,0,0,1,9,9,16.66,16.66,0,0,1,0,12.76,16.62,16.62,0,0,1-9,9A16.62,16.62,0,0,1,264,96.67H254m-20,0H224a16.62,16.62,0,0,1-6.38-1.27,16.88,16.88,0,0,1-5.41-3.61A16.67,16.67,0,0,1,224,63.33h10"/><path class="cls-2" d="M230.67,80h26.66"/><path class="cls-3" d="M304,79a1,1,0,0,0,0,2Zm40,1-10-5.77V85.77Zm-40,1h31V79H304Z"/><path class="cls-2" d="M414,63.33h10a16.62,16.62,0,0,1,6.38,1.27,16.62,16.62,0,0,1,9,9,16.66,16.66,0,0,1,0,12.76,16.62,16.62,0,0,1-9,9A16.62,16.62,0,0,1,424,96.67H414m-20,0H384a16.62,16.62,0,0,1-6.38-1.27,16.88,16.88,0,0,1-5.41-3.61A16.67,16.67,0,0,1,384,63.33h10"/><path class="cls-2" d="M390.67,80h26.66"/><rect class="cls-4" x="0.25" y="0.25" width="767.5" height="223.5" rx="23.75"/></svg>